<svg xmlns="http://www.w3.org/2000/svg" width="163.306" height="80" viewBox="0 0 163.306 80"><defs><style>.a{fill:#04d361;}.b{fill:#fff;}.c{opacity:0.5;}</style></defs><g transform="translate(0 0)"><g transform="translate(42.948 0)"><g transform="translate(0 0)"><path class="a" d="M1574.072-295.656c-8.11-4.451-16.319-9-24.43-13.451a5.674,5.674,0,0,0-5.341,0c-8.11,4.451-16.22,9-24.331,13.451a5.051,5.051,0,0,0-2.67,4.253v27.1a4.915,4.915,0,0,0,2.769,4.352c2.275,1.187,4.451,2.473,6.726,3.659l13.253,7.319,4.055,2.275a3.51,3.51,0,0,0,.89.4l.4.2h.1a5.7,5.7,0,0,0,4.055-.4c8.11-4.451,16.22-9,24.331-13.451a4.981,4.981,0,0,0,2.769-4.352v-27.1A5.084,5.084,0,0,0,1574.072-295.656Zm-35.111,30.364-6.33,5.835a.364.364,0,0,1-.3.1h-.1a.19.19,0,0,1-.1-.3l2.275-8.308a2.76,2.76,0,0,1,1.78-1.978l.1-.1a.869.869,0,0,1,.693.1c.4.3.692.495,1.088.791a7.357,7.357,0,0,0,1.187.692.669.669,0,0,1,.4.593l.2.2A2.794,2.794,0,0,1,1538.96-265.293Zm6.528-5.737c-.1,0-.1.1-.2.1l-1.978-.2a.727.727,0,0,0-.594.2l-2.176,1.978a.363.363,0,0,1-.3.1,14.752,14.752,0,0,1-2.967-1.78c-.1-.1-.2-.2-.1-.3l.692-2.868a.655.655,0,0,0-.1-.593l-1.088-1.681c0-.1-.1-.1-.1-.2,0-.2.1-.4.1-.692v-.1h0s.1-.1.1,0c.89.593,4.649,2.868,4.649,2.868s3.759,2.275,4.649,2.868a.364.364,0,0,1,.1.3Zm13.253-18.1.1.1,1.978.3h.1c.4.1.89.594.2,1.484l-8.308,11.275a.6.6,0,0,1-.4.1l-3.363-2.077a1.067,1.067,0,0,0-1.088,0l-1.088.692a1.072,1.072,0,0,1-1.088,0,1.541,1.541,0,0,0-2.077.2,4.162,4.162,0,0,1-4.847.2l-4.451-2.769-.2-.2h0a1.286,1.286,0,0,1-.1-1.879h0a1.462,1.462,0,0,1,1.978-.495l.89.495h.1c.1.1.2,0,.2-.1l.2-1.187c0-.1,0-.2-.1-.2l-.2-.1a.916.916,0,0,1-.3-1.187.8.8,0,0,1,1.088-.3l6.033,3.659h.1c.1.1.2,0,.3-.1l6.231-8.506a1.1,1.1,0,0,1,1.088-.4l1.582.2,1.088.2c0,.1.1,0,.1,0,.1-.1.1-.1,0-.1a.938.938,0,0,1-.2-1.286l2.077-2.868a1.146,1.146,0,0,1,.989-.4l3.956.593a.514.514,0,0,1,.4.2l.1.1c.2.2.1.495-.1.692,0,0-1.978,2.67-2.671,3.66v.1C1558.543-289.327,1558.543-289.228,1558.741-289.129Z" transform="translate(-1508.102 312.47)"/><path class="b" d="M1555.462-306.071c3.066-2.374,4.748-2.868,7.319-2.868a5.035,5.035,0,0,1,2.176.495c2.275,1.286,3.264,5.143,2.571,10.682l3.264,1.78c1.088-7.912-.4-13.352-4.253-15.528a7.835,7.835,0,0,0-3.956-.989c-3.462,0-6.231.989-10.583,4.451C1553.286-307.357,1554.375-306.665,1555.462-306.071Z" transform="translate(-1508.483 312.5)"/><path class="b" d="M1517.2-271.2c-4.55-2.176-5.638-3.956-5.638-6.429,0-2.571,2.571-5.044,7.22-7.22V-288.8c-6.923,2.868-10.781,6.824-10.781,11.077,0,4.352,2.275,7.418,9.2,10.286Z" transform="translate(-1508 312.24)"/><path class="b" d="M1526.559-299.344c-.594-5.44.4-7.715,2.769-9a3.528,3.528,0,0,1,2.176-.495c2.572,0,5.539,1.385,8.6,3.758l3.264-1.78c-4.253-3.462-8.506-5.44-11.968-5.44a7.839,7.839,0,0,0-3.956.989c-3.857,2.275-5.44,6.033-4.253,13.945C1524.383-298.157,1525.471-298.75,1526.559-299.344Z" transform="translate(-1508.162 312.498)"/><path class="b" d="M1577.183-287.8v3.758c4.55,2.176,5.638,3.956,5.638,6.429,0,2.571-2.571,5.044-7.22,7.22v3.956c6.923-2.868,10.781-6.824,10.781-11.077C1586.381-281.866,1584.205-284.932,1577.183-287.8Z" transform="translate(-1508.742 312.229)"/><path class="b" d="M1538.926-249.213c-3.067,2.374-4.748,2.868-7.319,2.868a5.035,5.035,0,0,1-2.176-.495c-2.374-1.286-3.264-5.242-2.572-10.682-1.088-.593-2.275-1.187-3.363-1.879-1.088,7.813.4,13.253,4.154,15.429a7.839,7.839,0,0,0,3.956.989c3.462.1,6.33-.89,10.682-4.352Z" transform="translate(-1508.167 311.918)"/><path class="b" d="M1567.712-255.821c.594,5.44-.495,7.715-2.769,9a3.528,3.528,0,0,1-2.176.495c-2.571,0-5.538-1.385-8.7-3.758-1.088.593-2.176,1.187-3.363,1.78,4.352,3.561,8.506,5.539,12.066,5.539a7.84,7.84,0,0,0,3.957-.989c3.857-2.275,5.539-6.033,4.253-13.945C1569.987-257.107,1568.8-256.513,1567.712-255.821Z" transform="translate(-1508.468 311.9)"/></g></g><g class="c" transform="translate(34.249 137.326)"><g transform="translate(0 0)"></g></g></g></svg>