<svg xmlns="http://www.w3.org/2000/svg" width="235.636" height="80" viewBox="0 0 235.636 80"><defs><style>.a{opacity:0.5;}.b{fill:#fff;}.c{fill:#fd951f;}</style></defs><g transform="translate(86.439 0)"><path class="c" d="M31.078,71.095a2.182,2.182,0,0,1-.66-.1l-24.28-7.7a2.174,2.174,0,0,1-1.517-1.911L.007,2.354A2.184,2.184,0,0,1,2.184,0H59.972a2.184,2.184,0,0,1,2.177,2.354l-4.614,59.03a2.172,2.172,0,0,1-1.517,1.911l-24.28,7.7A2.178,2.178,0,0,1,31.078,71.095ZM20.7,42.537a.735.735,0,0,0-.24.04l-.116.058a2.916,2.916,0,0,0-1.911,2.026l-2.374,8.685a.257.257,0,0,0,.232.348.387.387,0,0,0,.064.005.43.43,0,0,0,.225-.063l6.6-6.08a3.169,3.169,0,0,0,.926-2.605l-.173-.174a.834.834,0,0,0-.4-.579,5.575,5.575,0,0,1-1.216-.694,11.942,11.942,0,0,1-1.158-.81A.742.742,0,0,0,20.7,42.537Zm.1-7.509a.11.11,0,0,0-.035.006.113.113,0,0,0-.071.075v.058a2.6,2.6,0,0,1-.058.694.349.349,0,0,0,.058.232l1.1,1.795a.806.806,0,0,1,.116.637l-.752,3.011c-.052.1-.014.218.116.348a8.763,8.763,0,0,0,1.505,1.042,8.747,8.747,0,0,0,1.621.868.268.268,0,0,0,.139.039.272.272,0,0,0,.208-.1l2.316-2.084a.7.7,0,0,1,.579-.174l2.085.174.035,0a.35.35,0,0,0,.2-.06l.637-.347a.378.378,0,0,1-.032-.133c-.007-.065-.013-.122-.083-.157-.909-.569-4.768-2.93-4.806-2.954l-.005,0c-.4-.244-3.925-2.4-4.8-2.949A.113.113,0,0,0,20.794,35.028Zm12.313-1.02a.954.954,0,0,1,.55.174l3.532,2.142a.427.427,0,0,0,.183.039.237.237,0,0,0,.223-.1l8.684-11.811a1.155,1.155,0,0,0,.306-1.032.794.794,0,0,0-.537-.473h-.058l-2.085-.29c-.058,0-.058,0-.115-.058a.218.218,0,0,1-.058-.347c.742-.971,2.816-3.793,2.837-3.821a.493.493,0,0,0,0-.753,1.181,1.181,0,0,0-.463-.231L42,16.812a1.046,1.046,0,0,0-.985.4l-2.2,3.012a1,1,0,0,0,.174,1.389.039.039,0,0,1,.04.021c.01.023-.006.061-.04.1,0,0-.027.026-.043.026a.012.012,0,0,1-.011-.006.037.037,0,0,1,0-.02l-1.1-.173L36.2,21.386a1.16,1.16,0,0,0-1.1.463L28.56,30.766a.221.221,0,0,1-.159.117l-.036,0a.216.216,0,0,1-.152-.062L21.961,27a.843.843,0,0,0-1.157.29.946.946,0,0,0,.347,1.216l.174.116a.3.3,0,0,1,.115.232l-.173,1.273a.131.131,0,0,1-.118.138.077.077,0,0,1-.056-.023h-.058l-.926-.521a1.532,1.532,0,0,0-2.142.521,1.384,1.384,0,0,0,.174,1.969,2.311,2.311,0,0,1,.231.174l4.691,2.894a4.256,4.256,0,0,0,5.035-.173,2.032,2.032,0,0,1,1.213-.546,1.7,1.7,0,0,1,.929.314,1.053,1.053,0,0,0,1.159,0l1.158-.695A.952.952,0,0,1,33.106,34.007Z" transform="translate(0 0)"/></g></svg>