<svg xmlns="http://www.w3.org/2000/svg" width="133.766" height="80" viewBox="0 0 133.766 80"><defs><style>.a{opacity:0.5;}.b{fill:#fff;}.c{fill:#7159c1;}</style></defs><g transform="translate(0)"><g transform="translate(0 87.283)"></g><path class="c" d="M53.2,61.2H8a8.009,8.009,0,0,1-8-8V8A8.009,8.009,0,0,1,8,0H53.2a8.009,8.009,0,0,1,8,8V53.2A8.009,8.009,0,0,1,53.2,61.2ZM18.819,38.235a.482.482,0,0,0-.216.045l-.11.11a3.058,3.058,0,0,0-1.979,2.2l-2.53,9.239a.189.189,0,0,0-.027.208.175.175,0,0,0,.137.121h.11a.4.4,0,0,0,.33-.11l7.039-6.489a3.1,3.1,0,0,0,.99-2.64l-.22-.22a.742.742,0,0,0-.44-.66,8.226,8.226,0,0,1-1.32-.77c-.22-.165-.416-.305-.6-.44s-.385-.275-.6-.44A1.36,1.36,0,0,0,18.819,38.235Zm.305-7.813c-.032,0-.079.047-.081.049v.11a2.017,2.017,0,0,1-.063.463,1.429,1.429,0,0,0-.047.307.143.143,0,0,0,.055.11.143.143,0,0,1,.055.11l1.211,1.87a.731.731,0,0,1,.11.66l-.77,3.19a.129.129,0,0,0-.028.163.724.724,0,0,0,.136.164A16.5,16.5,0,0,0,23,39.6h.009a.394.394,0,0,0,.321-.11l2.419-2.2a.811.811,0,0,1,.66-.221l2.2.221a.143.143,0,0,0,.11-.055.143.143,0,0,1,.11-.055H29.6a.405.405,0,0,0-.11-.33c-.971-.647-5.128-3.164-5.17-3.19s-4.188-2.536-5.17-3.19a.061.061,0,0,0-.011-.042A.023.023,0,0,0,19.124,30.423Zm13.1-1.106a1,1,0,0,1,.564.165l3.74,2.309h.011a.652.652,0,0,0,.429-.11L46.21,19.143a1.226,1.226,0,0,0,.345-1.152.8.8,0,0,0-.565-.5h-.11l-2.2-.329-.11-.11c-.091-.046-.141-.089-.138-.1s.005-.006.013-.006a1.533,1.533,0,0,1,.454.22v-.11c.751-1.073,2.88-3.948,2.97-4.07a.544.544,0,0,0,.11-.771l-.11-.11a.573.573,0,0,0-.44-.22l-4.4-.66a1.29,1.29,0,0,0-1.1.439l-2.31,3.19a1.038,1.038,0,0,0,.221,1.43c.052,0,.077,0,.082.01s-.022.04-.082.1c0,0-.05.049-.082.049a.023.023,0,0,1-.021-.011.071.071,0,0,1-.008-.038l-1.21-.22-1.759-.22a1,1,0,0,0-.241-.028,1.229,1.229,0,0,0-.969.469l-6.928,9.459c-.077.077-.157.156-.234.156a.134.134,0,0,1-.1-.046h-.111l-6.709-4.069a1.038,1.038,0,0,0-.461-.11.811.811,0,0,0-.748.44,1.152,1.152,0,0,0-.083.743.817.817,0,0,0,.412.578l.22.11c.111,0,.111.112.111.22l-.22,1.32a.148.148,0,0,1-.127.155.134.134,0,0,1-.094-.045h-.11l-.99-.55a1.415,1.415,0,0,0-.79-.224,1.974,1.974,0,0,0-1.808,1.86,1.348,1.348,0,0,0,.508,1l.22.221,4.95,3.079A4.549,4.549,0,0,0,24,31.452a4.64,4.64,0,0,0,2.856-.98,1.9,1.9,0,0,1,1.323-.572,1.521,1.521,0,0,1,.987.352,1.19,1.19,0,0,0,1.211,0l1.21-.77A1.447,1.447,0,0,1,32.228,29.317Z" transform="translate(36.664 0)"/></g></svg>